<svg width="39" height="32" viewBox="0 0 39 32" fill="none" xmlns="http://www.w3.org/2000/svg">
<path d="M0.799707 12.4937L2.49971 13.4168V30.4629C2.49971 31.1398 2.94971 31.6937 3.49971 31.6937C4.04971 31.6937 4.49971 31.1398 4.49971 30.4629V14.4629L6.89971 15.7552V24.2475C6.89971 24.7398 7.14971 25.1706 7.49971 25.3552L19.0497 31.5091C19.1997 31.5706 19.2997 31.6322 19.4497 31.6322C19.5997 31.6322 19.6997 31.5706 19.8497 31.5091L31.3997 25.3552C31.7497 25.1706 31.9997 24.7398 31.9997 24.2475V15.7552L38.0997 12.4937C38.4497 12.3091 38.6997 11.8783 38.6997 11.386C38.6997 10.8937 38.4497 10.4629 38.0997 10.2783L19.8997 0.432151C19.6497 0.309075 19.3497 0.309075 19.0997 0.432151L0.799707 10.2168C0.449707 10.4014 0.199707 10.8322 0.199707 11.3245C0.199707 11.8168 0.449707 12.2475 0.799707 12.4937ZM30.0497 23.4475L19.4997 29.0475L8.94971 23.386V16.8014L19.0997 22.2168C19.2497 22.2783 19.3497 22.3398 19.4997 22.3398C19.6497 22.3398 19.7497 22.2783 19.8997 22.2168L30.0497 16.8014V23.4475ZM19.4997 2.95523L35.2497 11.386L19.4997 19.7552L3.74971 11.3245L19.4997 2.95523Z" fill="white"/>
</svg>
