<svg width="16" height="16" viewBox="0 0 16 16" fill="none" xmlns="http://www.w3.org/2000/svg">
<mask id="path-1-inside-1_1343_2" fill="white">
<path d="M8.00001 11.1999C7.53335 11.1999 7.06668 11.0199 6.71335 10.6666L2.36668 6.31993C2.17335 6.12659 2.17335 5.8066 2.36668 5.61326C2.56001 5.41993 2.88001 5.41993 3.07335 5.61326L7.42001 9.95993C7.74001 10.2799 8.26001 10.2799 8.58001 9.95993L12.9267 5.61326C13.12 5.41993 13.44 5.41993 13.6333 5.61326C13.8267 5.8066 13.8267 6.12659 13.6333 6.31993L9.28668 10.6666C8.93335 11.0199 8.46668 11.1999 8.00001 11.1999Z"/>
</mask>
<path d="M8.00001 11.1999C7.53335 11.1999 7.06668 11.0199 6.71335 10.6666L2.36668 6.31993C2.17335 6.12659 2.17335 5.8066 2.36668 5.61326C2.56001 5.41993 2.88001 5.41993 3.07335 5.61326L7.42001 9.95993C7.74001 10.2799 8.26001 10.2799 8.58001 9.95993L12.9267 5.61326C13.12 5.41993 13.44 5.41993 13.6333 5.61326C13.8267 5.8066 13.8267 6.12659 13.6333 6.31993L9.28668 10.6666C8.93335 11.0199 8.46668 11.1999 8.00001 11.1999Z" fill="white"/>
<path d="M6.71335 10.6666L6.00624 11.3737L6.71335 10.6666ZM2.36668 6.31993L3.07379 5.61282V5.61282L2.36668 6.31993ZM3.07335 5.61326L2.36624 6.32037L3.07335 5.61326ZM7.42001 9.95993L8.12712 9.25282L7.42001 9.95993ZM8.58001 9.95993L9.28712 10.667L8.58001 9.95993ZM12.9267 5.61326L12.2196 4.90615V4.90615L12.9267 5.61326ZM13.6333 6.31993L12.9262 5.61282V5.61282L13.6333 6.31993ZM9.28668 10.6666L9.99379 11.3737L9.28668 10.6666ZM8.00001 10.1999C7.78939 10.1999 7.57986 10.1189 7.42045 9.95949L6.00624 11.3737C6.5535 11.921 7.2773 12.1999 8.00001 12.1999V10.1999ZM7.42045 9.95949L3.07379 5.61282L1.65957 7.02703L6.00624 11.3737L7.42045 9.95949ZM3.07379 5.61282C3.27098 5.81001 3.27098 6.12318 3.07379 6.32037L1.65957 4.90615C1.07572 5.49001 1.07572 6.44318 1.65957 7.02703L3.07379 5.61282ZM3.07379 6.32037C2.8766 6.51756 2.56343 6.51756 2.36624 6.32037L3.78045 4.90615C3.1966 4.3223 2.24343 4.3223 1.65957 4.90615L3.07379 6.32037ZM2.36624 6.32037L6.71291 10.667L8.12712 9.25282L3.78045 4.90615L2.36624 6.32037ZM6.71291 10.667C7.42343 11.3776 8.5766 11.3776 9.28712 10.667L7.87291 9.25282C7.94343 9.1823 8.0566 9.1823 8.12712 9.25282L6.71291 10.667ZM9.28712 10.667L13.6338 6.32037L12.2196 4.90615L7.87291 9.25282L9.28712 10.667ZM13.6338 6.32037C13.4366 6.51756 13.1234 6.51756 12.9262 6.32037L14.3405 4.90615C13.7566 4.3223 12.8034 4.3223 12.2196 4.90615L13.6338 6.32037ZM12.9262 6.32037C12.729 6.12318 12.729 5.81001 12.9262 5.61282L14.3405 7.02703C14.9243 6.44318 14.9243 5.49001 14.3405 4.90615L12.9262 6.32037ZM12.9262 5.61282L8.57957 9.95949L9.99379 11.3737L14.3405 7.02703L12.9262 5.61282ZM8.57957 9.95949C8.42016 10.1189 8.21064 10.1999 8.00001 10.1999V12.1999C8.72272 12.1999 9.44653 11.921 9.99379 11.3737L8.57957 9.95949Z" fill="white" mask="url(#path-1-inside-1_1343_2)"/>
</svg>
