<svg width="48" height="48" viewBox="0 0 48 48" fill="none" xmlns="http://www.w3.org/2000/svg">
<g clip-path="url(#clip0_2799_2363)">
<path d="M33.4682 38.9729C33.8077 38.9791 34.1359 38.8507 34.3811 38.6157C34.6263 38.3807 34.7684 38.0582 34.7766 37.7187V15.4142C34.7726 15.2314 34.704 15.0558 34.583 14.9187C34.5805 14.9059 34.5805 14.8928 34.583 14.88L31.8191 12.0852L29.0011 9.20516C28.9183 9.12373 28.8182 9.06197 28.7084 9.02445C28.5985 8.98692 28.4815 8.9746 28.3662 8.98839H14.5701C14.4013 8.98531 14.2336 9.01551 14.0765 9.07727C13.9194 9.13903 13.776 9.23113 13.6545 9.34832C13.533 9.46551 13.4358 9.60548 13.3684 9.76025C13.301 9.91502 13.2647 10.0815 13.2617 10.2503V37.7032C13.2647 37.872 13.301 38.0385 13.3684 38.1933C13.4358 38.3481 13.533 38.488 13.6545 38.6052C13.776 38.7224 13.9194 38.8145 14.0765 38.8763C14.2336 38.938 14.4013 38.9682 14.5701 38.9652L33.4682 38.9729ZM32.2295 14.6632H29.1327V11.5665L30.6811 13.1148L32.2295 14.6632ZM14.7559 10.4826H27.6927V14.8723C27.6908 15.0437 27.725 15.2136 27.793 15.371C27.861 15.5284 27.9614 15.6697 28.0875 15.7858C28.3329 16.0099 28.6532 16.1342 28.9856 16.1342H33.2978V37.4787H14.7559V10.4826Z" fill="#216548"/>
<path d="M29.7135 28.5215H18.3251C18.1611 28.5661 18.0163 28.6634 17.9131 28.7984C17.8098 28.9334 17.7539 29.0986 17.7539 29.2686C17.7539 29.4385 17.8098 29.6038 17.9131 29.7388C18.0163 29.8738 18.1611 29.9711 18.3251 30.0157H29.7135C29.8775 29.9711 30.0222 29.8738 30.1255 29.7388C30.2287 29.6038 30.2846 29.4385 30.2846 29.2686C30.2846 29.0986 30.2287 28.9334 30.1255 28.7984C30.0222 28.6634 29.8775 28.5661 29.7135 28.5215Z" fill="#216548"/>
<path d="M29.7135 23.876H18.3251C18.1611 23.9205 18.0163 24.0178 17.9131 24.1529C17.8098 24.2879 17.7539 24.4531 17.7539 24.6231C17.7539 24.793 17.8098 24.9583 17.9131 25.0933C18.0163 25.2283 18.1611 25.3256 18.3251 25.3702H29.7135C29.8775 25.3256 30.0222 25.2283 30.1255 25.0933C30.2287 24.9583 30.2846 24.793 30.2846 24.6231C30.2846 24.4531 30.2287 24.2879 30.1255 24.1529C30.0222 24.0178 29.8775 23.9205 29.7135 23.876Z" fill="#216548"/>
<path d="M29.7135 19.4014H18.3251C18.1611 19.4459 18.0163 19.5432 17.9131 19.6783C17.8098 19.8133 17.7539 19.9785 17.7539 20.1485C17.7539 20.3184 17.8098 20.4837 17.9131 20.6187C18.0163 20.7537 18.1611 20.851 18.3251 20.8956H29.7135C29.8775 20.851 30.0222 20.7537 30.1255 20.6187C30.2287 20.4837 30.2846 20.3184 30.2846 20.1485C30.2846 19.9785 30.2287 19.8133 30.1255 19.6783C30.0222 19.5432 29.8775 19.4459 29.7135 19.4014Z" fill="#216548"/>
<path d="M23.9999 32.8027H18.3251C18.1611 32.8473 18.0163 32.9446 17.9131 33.0796C17.8098 33.2146 17.7539 33.3799 17.7539 33.5498C17.7539 33.7198 17.8098 33.885 17.9131 34.02C18.0163 34.1551 18.1611 34.2524 18.3251 34.2969H23.9999C24.1639 34.2524 24.3087 34.1551 24.4119 34.02C24.5151 33.885 24.5711 33.7198 24.5711 33.5498C24.5711 33.3799 24.5151 33.2146 24.4119 33.0796C24.3087 32.9446 24.1639 32.8473 23.9999 32.8027Z" fill="#216548"/>
<path d="M18.3251 16.0723H21.747C21.911 16.0277 22.0558 15.9304 22.159 15.7954C22.2622 15.6604 22.3182 15.4952 22.3182 15.3252C22.3182 15.1553 22.2622 14.99 22.159 14.855C22.0558 14.72 21.911 14.6227 21.747 14.5781H18.3251C18.1611 14.6227 18.0163 14.72 17.9131 14.855C17.8098 14.99 17.7539 15.1553 17.7539 15.3252C17.7539 15.4952 17.8098 15.6604 17.9131 15.7954C18.0163 15.9304 18.1611 16.0277 18.3251 16.0723Z" fill="#216548"/>
<path d="M6.41038 39.6621C6.06492 39.7296 5.7311 39.847 5.41941 40.0105C5.28884 40.0995 5.18861 40.2263 5.13219 40.3739C5.07576 40.5215 5.06585 40.6828 5.10377 40.8362C5.1417 40.9895 5.22565 41.1277 5.34434 41.2319C5.46304 41.3362 5.61081 41.4017 5.7678 41.4196C5.88637 41.4176 6.00292 41.3885 6.10845 41.3344C6.70294 41.0668 7.36672 40.9937 8.00522 41.1254C8.12772 41.1533 8.25517 41.1509 8.37656 41.1185C8.49795 41.0862 8.60964 41.0247 8.70199 40.9396C8.79023 40.8518 8.856 40.744 8.89373 40.6254C8.93147 40.5068 8.94006 40.3809 8.91877 40.2583C8.81087 39.615 8.91693 38.9542 9.2207 38.377C9.30466 38.2941 9.36858 38.1932 9.40756 38.0818C9.44655 37.9705 9.45958 37.8517 9.44565 37.7346C9.43173 37.6174 9.39122 37.505 9.32721 37.4059C9.26321 37.3068 9.17741 37.2237 9.07636 37.1628C8.97532 37.1019 8.8617 37.065 8.74418 37.0547C8.62666 37.0444 8.50835 37.0612 8.39829 37.1036C8.28822 37.1461 8.18931 37.2131 8.10912 37.2996C8.02892 37.3861 7.96955 37.4898 7.93554 37.6028C7.75281 37.9204 7.61474 38.2617 7.52522 38.617C6.97299 37.9961 6.45605 37.3448 5.97683 36.666C3.37291 32.9485 1.97613 28.5196 1.97613 23.9809C1.97613 19.4421 3.37291 15.0132 5.97683 11.2957C6.05496 11.2139 6.11421 11.1159 6.15041 11.0087C6.18661 10.9016 6.19888 10.7877 6.18636 10.6753C6.17384 10.5629 6.13683 10.4545 6.07793 10.358C6.01903 10.2614 5.93968 10.1789 5.84546 10.1162C5.75125 10.0536 5.64445 10.0124 5.53259 9.9955C5.42072 9.9786 5.30652 9.98642 5.19801 10.0184C5.08949 10.0504 4.98931 10.1058 4.9045 10.1807C4.8197 10.2555 4.75234 10.3481 4.70715 10.4518C1.92354 14.4213 0.430176 19.1519 0.430176 24.0002C0.430176 28.8485 1.92354 33.5791 4.70715 37.5486C5.23557 38.2839 5.80418 38.9895 6.41038 39.6621Z" fill="#216548"/>
<path d="M36.6812 42.0696C32.9665 44.6771 28.5384 46.0761 23.9999 46.0761C19.4614 46.0761 15.0333 44.6771 11.3186 42.0696C11.1587 42.0114 10.984 42.0076 10.8217 42.0586C10.6593 42.1097 10.5183 42.2128 10.4205 42.3521C10.3227 42.4914 10.2734 42.659 10.2804 42.829C10.2875 42.9991 10.3503 43.1621 10.4593 43.2928C14.4284 46.0775 19.1591 47.5715 24.0076 47.5715C28.8562 47.5715 33.5869 46.0775 37.556 43.2928C37.665 43.1621 37.7278 42.9991 37.7349 42.829C37.7419 42.659 37.6926 42.4914 37.5948 42.3521C37.497 42.2128 37.356 42.1097 37.1936 42.0586C37.0313 42.0076 36.8566 42.0114 36.6967 42.0696H36.6812Z" fill="#216548"/>
<path d="M39.4837 41.5434C39.6692 41.5413 39.8478 41.4726 39.9869 41.3499C40.2346 41.1254 40.4669 40.8931 40.7069 40.6609C40.9469 40.4286 41.1637 40.1886 41.3882 39.9486C41.521 39.8054 41.5947 39.6174 41.5947 39.4222C41.5947 39.2269 41.521 39.0389 41.3882 38.8957C41.2446 38.7607 41.0549 38.6855 40.8579 38.6855C40.6608 38.6855 40.4711 38.7607 40.3275 38.8957C40.1185 39.128 39.9095 39.3525 39.685 39.5693L38.9417 40.2583C38.8025 40.3955 38.7203 40.5803 38.7117 40.7756C38.7031 40.9709 38.7687 41.1622 38.8953 41.3112C38.9715 41.3891 39.0633 41.4501 39.1647 41.4902C39.2661 41.5302 39.3748 41.5483 39.4837 41.5434Z" fill="#216548"/>
<path d="M10.885 6.06218C11.0402 6.06024 11.1913 6.01169 11.3186 5.92282C15.0109 3.3394 19.4042 1.9454 23.9106 1.92742C28.4169 1.90943 32.8212 3.26831 36.534 5.82218C36.6994 5.9271 36.8983 5.96546 37.0908 5.92955C37.2833 5.89363 37.4551 5.78611 37.5715 5.62863C37.6772 5.4642 37.7168 5.26585 37.6823 5.07342C37.6479 4.88099 37.5419 4.70872 37.3857 4.59121C33.4199 1.86642 28.717 0.416859 23.9055 0.436227C19.0939 0.455595 14.4029 1.94297 10.4592 4.6996C10.3426 4.79788 10.2577 4.92839 10.215 5.07477C10.1724 5.22114 10.1738 5.37685 10.2193 5.52238C10.2648 5.66791 10.3522 5.79676 10.4707 5.89279C10.5891 5.98882 10.7332 6.04775 10.885 6.06218Z" fill="#216548"/>
<path d="M7.19998 9.29026C7.40419 9.28735 7.59898 9.20387 7.74192 9.058C7.95095 8.82574 8.15998 8.60897 8.3845 8.38445L9.05805 7.74187C9.16482 7.68804 9.25767 7.61022 9.32932 7.51449C9.40098 7.41876 9.44948 7.30774 9.47104 7.19013C9.49259 7.07252 9.48661 6.95151 9.45357 6.83659C9.42052 6.72168 9.36131 6.61598 9.28056 6.52778C9.19982 6.43959 9.09975 6.3713 8.98819 6.32826C8.87663 6.28522 8.75662 6.2686 8.63757 6.27972C8.51851 6.29083 8.40365 6.32937 8.30199 6.39232C8.20032 6.45526 8.11462 6.5409 8.0516 6.64252C7.80385 6.86703 7.5716 7.09929 7.3316 7.33155C7.0916 7.56381 6.87482 7.80381 6.65031 8.04381C6.52268 8.1918 6.45575 8.38257 6.46293 8.57786C6.47011 8.77315 6.55087 8.95849 6.68902 9.09671C6.83016 9.22118 7.0118 9.28999 7.19998 9.29026Z" fill="#216548"/>
<path d="M38.9264 10.4051C39.0367 10.4691 39.1627 10.5013 39.2903 10.498C39.422 10.4953 39.5508 10.4591 39.6646 10.3927C39.7784 10.3263 39.8734 10.232 39.9406 10.1186C40.1079 9.81174 40.2329 9.4836 40.3122 9.14315C40.9431 9.82999 41.5326 10.5539 42.0774 11.3109C44.6813 15.0284 46.0781 19.4573 46.0781 23.996C46.0781 28.5348 44.6813 32.9637 42.0774 36.6812C41.9708 36.8447 41.9299 37.0425 41.963 37.2348C41.996 37.4272 42.1004 37.6 42.2554 37.7186C42.3805 37.806 42.5287 37.8545 42.6812 37.858C42.8008 37.8559 42.9182 37.8261 43.0243 37.7711C43.1304 37.716 43.2223 37.6371 43.2928 37.5406C46.0765 33.571 47.5698 28.8404 47.5698 23.9922C47.5698 19.1439 46.0765 14.4133 43.2928 10.4438C42.6918 9.60068 42.0348 8.79888 41.3264 8.04379C41.7012 7.96971 42.0619 7.83643 42.3948 7.64895C42.5631 7.54853 42.687 7.38802 42.7416 7.1998C42.7962 7.01158 42.7774 6.80965 42.689 6.63476C42.5873 6.46779 42.4263 6.34546 42.2381 6.29233C42.05 6.2392 41.8488 6.2592 41.6748 6.34831C41.0876 6.62997 40.4266 6.71937 39.7857 6.60379C39.6632 6.57922 39.5365 6.5847 39.4165 6.61975C39.2965 6.65481 39.1868 6.71839 39.0967 6.80508C39.01 6.89515 38.9464 7.00487 38.9114 7.12486C38.8763 7.24485 38.8708 7.37155 38.8954 7.49411C39.011 8.13499 38.9216 8.79599 38.6399 9.38315C38.5485 9.55792 38.5273 9.761 38.5805 9.95092C38.6337 10.1408 38.7574 10.3033 38.9264 10.4051Z" fill="#216548"/>
</g>
<defs>
<clipPath id="clip0_2799_2363">
<rect width="48" height="48" fill="white"/>
</clipPath>
</defs>
</svg>
